HIERARCHY
ROOT ui
{
	 OFFSET 0 0 0
	 CHANNELS 3 XPosition YPosition Z Position
	 EndSite
	 {
	 OFFSET 0 -1 0
	 }
}
ROOT li
{
	 OFFSET 0 0 0
	 CHANNELS 3 XPosition YPosition Z Position
	 EndSite
	 {
	 OFFSET 0 -1 0
	 }
}
ROOT ul
{
	 OFFSET 0 0 0
	 CHANNELS 3 XPosition YPosition Z Position
	 EndSite
	 {
	 OFFSET 0 -1 0
	 }
}
ROOT ll
{
	 OFFSET 0 0 0
	 CHANNELS 3 XPosition YPosition Z Position
	 EndSite
	 {
	 OFFSET 0 -1 0
	 }
}
ROOT tt
{
	 OFFSET 0 0 0
	 CHANNELS 3 XPosition YPosition Z Position
	 EndSite
	 {
	 OFFSET 0 -1 0
	 }
}
ROOT tb
{
	 OFFSET 0 0 0
	 CHANNELS 3 XPosition YPosition Z Position
	 EndSite
	 {
	 OFFSET 0 -1 0
	 }
}
ROOT td
{
	 OFFSET 0 0 0
	 CHANNELS 3 XPosition YPosition Z Position
	 EndSite
	 {
	 OFFSET 0 -1 0
	 }
}
ROOT v
{
	 OFFSET 0 0 0
	 CHANNELS 3 XPosition YPosition Z Position
	 EndSite
	 {
	 OFFSET 0 -1 0
	 }
}
ROOT bn
{
	 OFFSET 0 0 0
	 CHANNELS 3 XPosition YPosition Z Position
	 EndSite
	 {
	 OFFSET 0 -1 0
	 }
}
MOTION
Frames: 16
Frame Time: 0.002
-0.024508285522460937	9.397590160369874E-4	0		0.5356197509765624	-2.44180908203125	0		-0.8570067138671875	0.10653977966308593	0		-0.45930804443359374	-2.56177880859375	0		1.95358935546875	-1.2641151123046874	0		3.530707763671875	-1.135947509765625	0		4.71917626953125	-0.58485498046875	0		6.0054541015625	0.4158100280761719	0		0.0038902440071105957	5.97919384765625	0		
0.00191117000579834	0.0012225639820098878	0		0.5370432739257812	-2.438158203125	0		-0.8694295043945313	0.11742691040039062	0		-0.47283953857421873	-2.55488330078125	0		1.9732744140625	-1.2447642822265625	0		3.50618798828125	-1.12995751953125	0		4.71345263671875	-0.5931725463867188	0		5.99177978515625	0.409590087890625	0		-0.013713331222534179	5.97114306640625	0		
-0.005734000205993652	-0.005000006198883056	0		0.5484224243164062	-2.43968017578125	0		-0.8790872192382813	0.11025237274169922	0		-0.47547628784179685	-2.55717236328125	0		1.968861328125	-1.2340740966796875	0		3.500489501953125	-1.138281005859375	0		4.70981005859375	-0.598551025390625	0		5.97812841796875	0.40233758544921877	0		-0.04821965026855469	5.966330078125	0		
-0.029178459167480467	-4.980999976396561E-6	0		0.4939425964355469	-2.43322705078125	0		-0.879592529296875	0.11091810607910156	0		-0.47807098388671876	-2.558485107421875	0		1.9624332275390626	-1.22638134765625	0		3.508894775390625	-1.1418487548828125	0		4.7220751953125	-0.6122052612304687	0		5.99049169921875	0.39365460205078123	0		-0.0135228910446167	5.9714453125	0		
-0.006720180988311768	-0.003735071897506714	0		0.5292346801757812	-2.44416650390625	0		-0.880068115234375	0.11155763244628907	0		-0.5016534423828125	-2.560505126953125	0		1.919325927734375	-1.1991590576171876	0		3.51343408203125	-1.138390625	0		4.71237060546875	-0.6255614013671875	0		5.9730244140625	0.39438812255859373	0		-0.01385816478729248	5.972064453125	0		
-0.003122948884963989	-2.082650065422058E-4	0		0.48091357421875	-2.4308623046875	0		-0.8764527587890625	0.11610631561279297	0		-0.5079823608398437	-2.547814697265625	0		1.9590716552734375	-1.18423046875	0		3.50411083984375	-1.12775537109375	0		4.719814453125	-0.6312132568359375	0		5.9805859375	0.39470379638671876	0		0.035097541809082033	5.988904296875	0		
0.039594772338867185	0.008689569473266602	0		0.5435658569335937	-2.422281982421875	0		-0.8768643188476563	0.11668388366699219	0		-0.5084630737304687	-2.54724658203125	0		1.9460396728515625	-1.15653125	0		3.5036669921875	-1.12729150390625	0		4.71529248046875	-0.63671923828125	0		5.985302734375	0.40302615356445315	0		0.019672359466552734	5.9786884765625	0		
-0.003917030096054077	8.656309843063355E-4	0		0.4960513610839844	-2.42605859375	0		-0.8813013916015625	0.1132875747680664	0		-0.47597494506835936	-2.551218017578125	0		1.9427828369140625	-1.1460191650390625	0		3.52131689453125	-1.1231407470703125	0		4.72458935546875	-0.6564755859375	0		5.9888115234375	0.3953265380859375	0		-0.014636736869812011	5.97372705078125	0		
-0.008308222770690918	-0.0015932990312576294	0		0.5406812133789063	-2.423281982421875	0		-0.8816441040039062	0.11379057312011719	0		-0.5113543395996094	-2.5481904296875	0		1.9328668212890625	-1.1154422607421874	0		3.4970048828125	-1.1183887939453125	0		4.72113427734375	-0.662076171875	0		5.97147802734375	0.39590567016601563	0		-0.0148223934173584	5.97420654296875	0		
-0.035619388580322264	-7.43257999420166E-4	0		0.49729122924804686	-2.423201171875	0		-0.881955322265625	0.11425011444091797	0		-0.4747418212890625	-2.548308349609375	0		1.9027252197265625	-1.1016002197265624	0		3.505613525390625	-1.1211851806640625	0		4.72258740234375	-0.6757969970703125	0		5.97991259765625	0.3790440979003906	0		-0.013006251335144043	5.9726123046875	0		
-9.213839769363403E-4	-0.0018918960094451904	0		0.5119262390136718	-2.424056884765625	0		-0.8631294555664063	0.12136917877197266	0		-0.5039513549804687	-2.538462890625	0		1.909781005859375	-1.0773739013671875	0		3.514499267578125	-1.1080316162109376	0		4.72024072265625	-0.6785053100585937	0		5.975763671875	0.387331298828125	0		0.00203961706161499	5.98376904296875	0		
-0.0011677370071411133	-0.0015553770065307618	0		0.5208297119140625	-2.409874267578125	0		-0.868294921875	0.1268050308227539	0		-0.46831570434570313	-2.541666748046875	0		1.90096875	-1.046953369140625	0		3.487226806640625	-1.1073731689453126	0		4.71583837890625	-0.68723193359375	0		5.96654443359375	0.3886469421386719	0		0.01988905906677246	5.9798291015625	0		
-0.009354500770568848	-1.5058599412441255E-4	0		0.5164872436523438	-2.4145439453125	0		-0.8735557861328125	0.12318675994873046	0		-0.5174404296875	-2.53161865234375	0		1.8968929443359375	-1.0366607666015626	0		3.455229736328125	-1.09169091796875	0		4.71154052734375	-0.692010986328125	0		5.9712119140625	0.37969705200195314	0		0.019841764450073244	5.98010986328125	0		
-0.008629556655883788	-0.007941256999969483	0		0.516274658203125	-2.41433349609375	0		-0.8737041015625	0.12343246459960938	0		-0.44878775024414064	-2.540446533203125	0		1.8881796875	-1.0063499145507813	0		3.478970703125	-1.0969249267578125	0		4.7141552734375	-0.705951416015625	0		5.966947265625	0.3718320617675781	0		-0.014246733665466308	5.97485888671875	0		
-0.013641334533691407	-0.002701046943664551	0		0.4912061767578125	-2.408796875	0		-0.8638072509765625	0.12246265411376953	0		-0.5157769775390625	-2.529237060546875	0		1.8933896484375	-0.9853128662109375	0		3.455197265625	-1.074478515625	0		4.70790966796875	-0.71481005859375	0		5.96686669921875	0.3718487548828125	0		-0.033109878540039064	5.9803154296875	0		
0.04338240432739258	-4.8243701457977294E-4	0		0.4952103576660156	-2.40376953125	0		-0.8587587890625	0.12650672149658204	0		-0.5107758178710937	-2.524201416015625	0		1.899675048828125	-0.9643515625	0		3.464093017578125	-1.07859765625	0		4.70301708984375	-0.7057435302734375	0		5.9709833984375	0.3797462463378906	0		0.0011046329736709595	5.985890625	0		
